<svg xmlns="http://www.w3.org/2000/svg" aria-hidden="true" style="position:absolute;width:0;height:0;overflow:hidden">
  <defs>
    <symbol id="google-play" viewBox="0 0 108 32">
      <path d="M103.383 31.935H4.617a3.898 3.898 0 0 1-3.66-2.433 3.93 3.93 0 0 1-.29-1.518V4.281A3.912 3.912 0 0 1 4.617.329h98.766a3.898 3.898 0 0 1 3.66 2.434c.196.482.295.998.29 1.518v23.703c0 2.133-1.739 3.951-3.95 3.951z" style="fill:var(--color1, #000)"/>
      <path fill="#a6a6a6" d="M103.383.962c1.817 0 3.318 1.502 3.318 3.319v23.703a3.337 3.337 0 0 1-3.318 3.318H4.617a3.337 3.337 0 0 1-3.318-3.318V4.281C1.299 2.463 2.8.962 4.617.962h98.766zm0-.631H4.617c-.52-.005-1.036.094-1.518.29A3.895 3.895 0 0 0 .957 2.763 3.926 3.926 0 0 0 .666 4.28v23.703a3.912 3.912 0 0 0 3.95 3.95h98.766c.52.005 1.036-.094 1.518-.29a3.895 3.895 0 0 0 2.142-2.142c.197-.482.295-.997.29-1.518V4.28c0-2.133-1.739-3.951-3.95-3.951V.33z" style="fill:var(--color2, #a6a6a6)"/>
      <path fill="#fff" d="M38.118 8.389c0 .631-.158 1.185-.553 1.58-.474.475-1.028.711-1.739.711s-1.264-.236-1.738-.711c-.474-.474-.711-1.027-.711-1.738s.237-1.264.711-1.739c.474-.474 1.027-.711 1.739-.711.315 0 .631.08.947.237s.553.316.711.553l-.395.396c-.317-.396-.711-.553-1.264-.553-.475 0-.949.157-1.265.553-.395.316-.553.79-.553 1.342 0 .554.158 1.028.553 1.344s.791.553 1.264.553c.554 0 .948-.158 1.344-.553.236-.237.395-.553.395-.948h-1.739v-.553h2.292v.237zm3.635-1.976H39.62v1.501h1.975v.553H39.62v1.501h2.133v.632h-2.765V5.86h2.765v.553zm2.608 4.188h-.633V6.413h-1.342V5.86h3.318v.553h-1.343v4.188zm3.634 0v-4.74h.633v4.74h-.633zm3.319 0h-.632V6.413h-1.343V5.86h3.239v.553h-1.343v4.188h.079zm7.506-.631c-.474.474-1.027.711-1.738.711s-1.265-.237-1.739-.711c-.474-.475-.711-1.028-.711-1.739s.237-1.264.711-1.739c.474-.474 1.028-.711 1.739-.711s1.264.237 1.738.711c.475.475.711 1.028.711 1.739s-.236 1.264-.711 1.739zm-3.002-.396c.316.316.789.553 1.264.553s.948-.158 1.264-.553c.317-.316.553-.79.553-1.343s-.158-1.028-.553-1.343c-.316-.316-.79-.553-1.264-.553s-.948.157-1.264.553c-.355.357-.554.84-.554 1.343 0 .553.158 1.027.554 1.343zm4.582 1.027v-4.74h.711l2.292 3.714V5.861h.631v4.74h-.631l-2.45-3.871v3.872H60.4v-.001zM54.474 17.554c-1.896 0-3.397 1.422-3.397 3.397a3.372 3.372 0 0 0 3.398 3.398c1.897 0 3.398-1.422 3.398-3.397 0-2.054-1.502-3.397-3.398-3.397zm0 5.372c-1.027 0-1.896-.869-1.896-2.054s.869-2.054 1.896-2.054c1.028 0 1.897.79 1.897 2.053 0 1.186-.869 2.055-1.897 2.055zm-7.348-5.372c-1.897 0-3.398 1.422-3.398 3.397a3.368 3.368 0 0 0 .988 2.41 3.379 3.379 0 0 0 2.41.988c1.896 0 3.397-1.422 3.397-3.397 0-2.054-1.501-3.397-3.397-3.397zm0 5.372c-1.028 0-1.897-.869-1.897-2.054s.869-2.054 1.897-2.054c1.027 0 1.896.79 1.896 2.053 0 1.186-.869 2.055-1.896 2.055zm-8.77-4.346v1.422h3.397c-.079.79-.395 1.422-.79 1.818-.474.474-1.264 1.027-2.607 1.027-2.133 0-3.714-1.659-3.714-3.793s1.66-3.792 3.714-3.792c1.106 0 1.975.474 2.607 1.027l1.028-1.027c-.869-.791-1.975-1.422-3.556-1.422-2.844 0-5.294 2.37-5.294 5.214s2.45 5.215 5.294 5.215c1.58 0 2.686-.474 3.635-1.501.948-.948 1.264-2.292 1.264-3.318 0-.316 0-.632-.079-.869h-4.899zm35.871 1.107c-.316-.791-1.106-2.133-2.844-2.133s-3.16 1.342-3.16 3.397c0 1.896 1.422 3.397 3.318 3.397 1.502 0 2.45-.948 2.765-1.501l-1.106-.79c-.395.553-.869.949-1.66.949s-1.264-.316-1.659-1.028l4.503-1.896-.158-.395zm-4.583 1.106c0-1.264 1.028-1.975 1.739-1.975.553 0 1.106.316 1.264.711l-3.003 1.264zm-3.713 3.24h1.502v-9.877h-1.502v9.877zm-2.37-5.769c-.396-.395-1.028-.789-1.818-.789-1.659 0-3.239 1.501-3.239 3.397s1.501 3.318 3.239 3.318c.79 0 1.422-.395 1.739-.79h.078v.475c0 1.264-.711 1.975-1.817 1.975-.869 0-1.501-.632-1.659-1.185l-1.264.553c.395.869 1.343 1.975 3.003 1.975 1.739 0 3.161-1.027 3.161-3.476v-6.005h-1.422v.553zm-1.739 4.663c-1.028 0-1.896-.869-1.896-2.054s.868-2.054 1.896-2.054c1.027 0 1.817.869 1.817 2.053 0 1.186-.789 2.055-1.817 2.055zm19.279-8.771h-3.556v9.877h1.501V20.32h2.053c1.661 0 3.24-1.186 3.24-3.082s-1.579-3.082-3.239-3.082zm.079 4.742h-2.133V15.5h2.133c1.106 0 1.738.949 1.738 1.66-.079.869-.711 1.739-1.738 1.739zm9.087-1.423c-1.107 0-2.212.474-2.607 1.501l1.342.553c.317-.553.791-.711 1.344-.711.79 0 1.501.474 1.581 1.264v.079c-.237-.158-.869-.396-1.501-.396-1.422 0-2.845.791-2.845 2.213 0 1.342 1.185 2.212 2.449 2.212 1.028 0 1.501-.474 1.897-.948h.079v.79h1.422v-3.794c-.158-1.739-1.501-2.765-3.161-2.765zm-.158 5.452c-.474 0-1.185-.237-1.185-.869 0-.79.869-1.027 1.58-1.027.632 0 .948.158 1.343.316-.158.948-.948 1.58-1.739 1.58zm8.296-5.215-1.66 4.267h-.079l-1.739-4.267h-1.58l2.607 6.005-1.501 3.318h1.501l4.029-9.324h-1.58zm-13.274 6.321h1.502v-9.876h-1.502v9.876z" style="fill:var(--color3, #fff)"/>
      <path d="M8.884 6.256c-.236.237-.395.632-.395 1.107v17.461c0 .474.158.869.395 1.106l.08.08 9.796-9.798v-.158L8.884 6.257zM22 19.531l-3.24-3.24v-.237l3.24-3.24.079.079 3.871 2.212c1.107.631 1.107 1.659 0 2.292L22 19.53z" style="fill:var(--color1, #000)"/>
      <path d="m22.079 19.45-3.318-3.318-9.877 9.877c.396.395.948.395 1.66.079l11.536-6.637z" style="fill:var(--color1, #000)"/>
      <path d="M22.079 12.815 10.542 6.257c-.711-.396-1.264-.316-1.66.079l9.878 9.797 3.318-3.318z" style="fill:var(--color1, #000)"/>
      <path d="m22 19.373-11.457 6.48c-.632.395-1.185.315-1.58 0l-.079.078.08.08c.395.316.948.395 1.58 0l11.457-6.638z" opacity=".2" style="fill:var(--color1, #000)"/>
      <path d="M8.884 25.851c-.236-.237-.316-.631-.316-1.106v.079c0 .474.158.868.395 1.106v-.079h-.079zm17.066-8.693L22 19.372l.079.078 3.871-2.212c.554-.316.791-.711.791-1.106 0 .395-.316.711-.791 1.027v-.001z" opacity=".12" style="fill:var(--color1, #000)"/>
      <path fill="#fff" d="m10.543 6.335 15.408 8.771c.474.316.789.631.789 1.027 0-.395-.236-.79-.789-1.106L10.542 6.256c-1.105-.632-1.973-.078-1.973 1.185v.08c0-1.265.869-1.818 1.975-1.186h-.001z" opacity=".25" style="fill:var(--color3, #fff)"/>
    </symbol>
    <symbol id="app-store" viewBox="0 0 108 32">
      <path fill="#b7b7b7" d="M93.39 0H13.044c-.548 0-1.018.078-1.566.156S10.46.392 9.99.627c-.47.234-.862.548-1.253.94s-.705.783-.94 1.253a5.479 5.479 0 0 0-.471 1.488c-.078.549-.156 1.097-.156 1.566v19.499c0 .549.078 1.019.156 1.566s.236 1.018.471 1.488c.234.549.548.94.94 1.331s.783.705 1.253.94c.466.238.969.397 1.488.47.549.078 1.019.156 1.566.156h81.912c.548 0 1.018-.078 1.566-.156a4.724 4.724 0 0 0 1.488-.47c.47-.234.862-.548 1.253-.94s.705-.783.94-1.253c.238-.467.397-.97.47-1.488.079-.548.157-1.018.157-1.566V5.873c0-.548-.078-1.018-.157-1.566a4.732 4.732 0 0 0-.47-1.488c-.235-.47-.548-.862-.94-1.253S98.48.861 98.01.626a4.744 4.744 0 0 0-1.488-.471c-.549-.078-1.019-.156-1.566-.156h-1.567z" style="fill:var(--color4, #b7b7b7)"/>
      <path fill="#000001" d="M13.749 30.619h-.705c-.47 0-.94 0-1.488-.156a6.59 6.59 0 0 1-1.332-.392c-.392-.235-.783-.47-1.097-.784-.312-.312-.626-.705-.783-1.096-.234-.392-.313-.784-.392-1.331s-.156-1.097-.156-1.488v-19.5c0-.391 0-.94.156-1.488.157-.392.235-.862.47-1.253s.47-.784.784-1.097c.313-.313.705-.548 1.096-.783s.862-.314 1.332-.392c.47-.156 1.018-.156 1.41-.156h81.912c.392 0 .94 0 1.488.156.47.078.862.235 1.331.392.392.234.783.47 1.097.783s.626.705.783 1.097c.235.391.313.861.392 1.253.078.47.156 1.018.156 1.488v19.501c0 .47-.078.94-.156 1.488a6.626 6.626 0 0 1-.392 1.331c-.235.391-.47.783-.783 1.096s-.705.627-1.097.784c-.392.234-.783.313-1.331.391-.47.078-1.018.078-1.488.157l-81.207-.001z" style="fill:var(--color5, #000001)"/>
      <path fill="#fff" d="M26.592 15.896c0-2.193 1.801-3.211 1.879-3.289-1.018-1.488-2.584-1.645-3.132-1.723-1.331-.156-2.584.784-3.289.784s-1.723-.784-2.819-.784c-1.41 0-2.741.862-3.524 2.115-1.488 2.583-.392 6.499 1.096 8.613.705 1.019 1.567 2.193 2.663 2.193 1.096-.078 1.488-.705 2.819-.705s1.644.705 2.819.705 1.879-1.019 2.583-2.115c.862-1.174 1.175-2.349 1.175-2.427 0 .078-2.271-.783-2.271-3.367zm-2.193-6.343c.548-.705 1.018-1.723.861-2.741-.861 0-1.879.548-2.505 1.332-.549.626-1.019 1.645-.862 2.662.94 0 1.958-.548 2.506-1.253zM40.296 21.22h-3.681l-.862 2.663h-1.566l3.524-9.711h1.566l3.524 9.711h-1.566l-.94-2.663zm-3.29-1.175h2.976l-1.488-4.307h-.078l-1.41 4.307zm13.392.313c0 2.193-1.175 3.603-2.976 3.603-1.018 0-1.801-.47-2.193-1.253v3.524h-1.488v-9.397h1.41v1.175c.392-.784 1.253-1.253 2.271-1.253 1.723-.078 2.976 1.409 2.976 3.602zm-1.566 0c0-1.409-.705-2.349-1.879-2.349-1.097 0-1.879.94-1.879 2.349s.783 2.349 1.879 2.349c1.175 0 1.879-.94 1.879-2.349zm9.319 0c0 2.193-1.175 3.603-2.976 3.603-1.018 0-1.801-.47-2.193-1.253v3.524h-1.487v-9.397h1.409v1.175c.392-.784 1.253-1.253 2.271-1.253 1.801-.078 2.975 1.409 2.975 3.602zm-1.489 0c0-1.409-.705-2.349-1.879-2.349-1.096 0-1.879.94-1.879 2.349s.784 2.349 1.879 2.349c1.175 0 1.879-.94 1.879-2.349zm6.657.784c.078.94 1.018 1.567 2.349 1.567 1.253 0 2.114-.627 2.114-1.488 0-.783-.549-1.175-1.801-1.488l-1.253-.313c-1.801-.47-2.584-1.253-2.584-2.584 0-1.645 1.488-2.82 3.524-2.82s3.446 1.175 3.524 2.82h-1.488c-.078-.94-.861-1.567-2.035-1.567s-1.957.627-1.957 1.488c0 .705.548 1.097 1.801 1.409l1.097.235c1.957.47 2.819 1.253 2.819 2.663 0 1.801-1.488 2.975-3.759 2.975-2.193 0-3.602-1.096-3.681-2.897h1.332zm9.084-6.029v1.644h1.331v1.175h-1.33v3.916c0 .626.234.861.861.861h.47v1.175c-.156.078-.47.078-.783.078-1.409 0-1.957-.548-1.957-1.879V18.01h-1.019v-1.175h1.019V15.19h1.409l-.001-.078zm2.192 5.246c0-2.193 1.332-3.603 3.367-3.603s3.368 1.409 3.368 3.603c0 2.271-1.331 3.602-3.368 3.602-2.114 0-3.367-1.41-3.367-3.602zm5.247 0c0-1.566-.705-2.427-1.879-2.427s-1.879.861-1.879 2.427.705 2.427 1.879 2.427 1.879-.94 1.879-2.427zm2.663-3.602h1.41v1.253c.234-.784.861-1.253 1.723-1.253.235 0 .392 0 .47.078v1.331c-.078-.078-.392-.078-.627-.078-.94 0-1.488.627-1.488 1.645v4.229h-1.488v-7.204zm10.337 5.011c-.157 1.253-1.488 2.193-3.054 2.193-2.036 0-3.367-1.41-3.367-3.602s1.253-3.681 3.289-3.681c1.957 0 3.21 1.332 3.21 3.524v.47h-5.011v.078c0 1.175.783 2.037 1.879 2.037.783 0 1.409-.392 1.644-1.019l1.41-.001zm-4.934-2.114h3.524c0-1.097-.705-1.801-1.723-1.801s-1.723.784-1.801 1.801zM36.771 6.814c1.41 0 2.193.862 2.193 2.349s-.784 2.349-2.193 2.349h-1.722V6.813h1.722zm-.939 4.072h.862c.94 0 1.566-.626 1.566-1.645s-.549-1.644-1.566-1.644h-.862v3.289zm3.994-1.175c0-1.175.626-1.801 1.644-1.801s1.645.705 1.645 1.801c0 1.175-.626 1.801-1.645 1.801-1.018.078-1.644-.627-1.644-1.801zm2.584 0c0-.783-.312-1.175-.94-1.175-.626 0-.94.47-.94 1.175 0 .783.314 1.253.94 1.253s.94-.47.94-1.253zm5.169 1.801h-.705l-.705-2.583h-.078l-.706 2.583h-.705l-.94-3.523h.705l.627 2.662h.078l.705-2.662h.705l.705 2.662h.078l.627-2.662h.705l-1.096 3.523zm1.8-3.524h.705v.548h.078c.157-.392.549-.627 1.019-.627.783 0 1.253.47 1.253 1.332v2.271h-.705V9.397c0-.548-.234-.861-.783-.861s-.862.313-.862.862v2.036h-.705V7.989zm4.073-1.408h.705v4.933h-.705V6.58zm1.644 3.131c0-1.175.627-1.801 1.645-1.801s1.645.705 1.645 1.801c0 1.175-.627 1.801-1.645 1.801-1.019.078-1.645-.627-1.645-1.801zm2.663 0c0-.783-.313-1.175-.94-1.175s-.94.47-.94 1.175c0 .783.313 1.253.94 1.253.548 0 .94-.47.94-1.253zm1.409.783c0-.626.47-1.018 1.331-1.018l.94-.078v-.314c0-.391-.235-.548-.705-.548-.392 0-.627.156-.705.392h-.705c.078-.627.626-1.019 1.41-1.019.861 0 1.41.47 1.41 1.175v2.427h-.705v-.469h-.078c-.236.391-.627.548-1.097.548a1.062 1.062 0 0 1-.783-.313 1.075 1.075 0 0 1-.313-.783zm2.272-.313v-.313l-.862.078c-.47 0-.705.235-.705.47 0 .313.313.47.627.47.548.078.94-.235.94-.705zm1.565-.469c0-1.097.549-1.801 1.488-1.801.47 0 .861.234 1.096.627h.078V6.58h.706v4.933h-.705v-.548h-.078a1.259 1.259 0 0 1-1.096.627c-.862 0-1.488-.705-1.488-1.879zm.784 0c0 .783.391 1.175.94 1.175s.94-.47.94-1.175-.392-1.175-.94-1.175c-.627 0-.94.47-.94 1.175zm5.403-.001c0-1.175.626-1.801 1.645-1.801s1.645.705 1.645 1.801c0 1.175-.627 1.801-1.645 1.801-1.019.078-1.645-.627-1.645-1.801zm2.662 0c0-.783-.313-1.175-.94-1.175s-.94.47-.94 1.175c0 .783.313 1.253.94 1.253.549 0 .94-.47.94-1.253zm1.645-1.723h.705v.548h.078c.157-.392.549-.627 1.019-.627.783 0 1.253.47 1.253 1.332v2.271h-.705V9.397c0-.548-.234-.861-.783-.861s-.862.313-.862.862v2.036h-.705V7.989zm6.892-.862v.862h.783v.627h-.783v1.801c0 .392.156.548.47.548h.234v.549h-.391c-.783 0-1.097-.235-1.097-.94V8.615h-.548v-.548h.548v-.941h.784zm1.722-.546h.705v1.957h.078c.157-.392.549-.627 1.097-.627.783 0 1.253.47 1.253 1.332v2.271h-.705V9.398c0-.548-.234-.861-.783-.861s-.862.391-.862.861v2.036h-.705V6.579h-.078zm7.126 3.993c-.156.626-.705 1.018-1.566 1.018-1.019 0-1.644-.705-1.644-1.801s.626-1.879 1.644-1.879c1.018 0 1.566.705 1.566 1.801v.235h-2.505c0 .627.391 1.018.94 1.018.391 0 .705-.156.861-.391h.705zm-2.505-1.175h1.801c0-.549-.391-.94-.861-.94-.549.078-.862.391-.94.94z" style="fill:var(--color3, #fff)"/>
    </symbol>
    <symbol id="facebook" viewBox="0 0 32 32">
      <path d="M11.451 10.926H7.634v5.09h3.817v15.269h6.362V16.016h4.634l.456-5.09h-5.089V8.805c0-1.214.244-1.696 1.419-1.696h3.671V.747h-4.846c-4.574 0-6.606 2.014-6.606 5.873v4.306z"/>
    </symbol>
    <symbol id="forbes" viewBox="0 0 70 32">
      <path d="M33.757 11.622c-.58 0-.898.057-1.366.283-.861.394-1.497 1.033-2.059 2.067l-.187.32.018-.583c.019-.32.037-.903.056-1.316l.019-.733h-.131c-.15 0-5.091.996-5.241 1.052-.093.037-.112.075-.112.32s.019.281.112.301c.056.019.282.056.505.094.431.075.562.15.748.394.337.432.394 1.222.394 4.511 0 2.688-.056 4.041-.187 4.455-.15.508-.431.771-.917.865-.15.037-.356.075-.449.095l-.169.037-.018.339c-.019.244 0 .357.056.394.037.019 1.722.037 3.743.037l3.687-.019.019-.394c0-.207 0-.394-.019-.394-.281 0-1.16-.113-1.31-.188-.412-.169-.617-.545-.711-1.316-.093-.883-.168-3.12-.131-4.925.038-1.842.038-1.842.15-1.974.262-.282.936-.508 1.553-.508.487 0 .992.132 1.516.376.262.132.487.207.524.207.075-.019 1.273-3.233 1.273-3.383 0-.188-.693-.414-1.367-.414z"/>
      <path d="M24.771 17.206c-.262-2.218-1.198-3.834-2.752-4.755-1.721-1.015-4.323-1.072-6.177-.132-1.347.677-2.433 1.974-2.92 3.478-.505 1.541-.505 3.571 0 5.131.319 1.015.748 1.749 1.423 2.406.805.808 1.853 1.316 3.069 1.485.43.056 1.797.056 2.245 0 .207-.037.581-.113.806-.17 2.19-.639 3.687-2.331 4.193-4.737.13-.601.187-2.03.112-2.707zm-5.54 6.654c-1.366.413-2.339-.903-2.714-3.628-.13-.883-.112-3.289 0-4.286.262-2.199.936-3.308 2.003-3.308.487 0 .748.112 1.123.488.899.903 1.311 2.631 1.311 5.339 0 2.161-.224 3.515-.693 4.435-.243.432-.674.846-1.029.959z"/>
      <path d="M6.803 8.371h1.573c1.796 0 2.096.037 2.732.357.917.451 1.591 1.354 2.19 2.932.244.639.244.639.768.47l.356-.113-.037-2.312c-.019-1.278-.038-2.406-.056-2.5l-.038-.207-6.87-.019c-3.781 0-6.944 0-7.038.019l-.168.037.019.414.019.414.524.056c.674.074 1.086.282 1.329.62.543.79.637 1.88.637 7.011 0 5.47-.113 6.805-.637 7.481-.262.357-.487.47-1.104.583-.805.15-.768.132-.768.545 0 .225.019.357.056.376.093.037 8.872.037 8.966 0 .112-.037.112-.696 0-.752a9.146 9.146 0 0 0-.655-.132 7.577 7.577 0 0 1-.768-.17c-.58-.244-.898-.94-1.011-2.199-.093-.902-.15-2.575-.15-3.797v-1.128l.542.019c1.142.037 1.722.094 1.966.207.524.225.935.865 1.141 1.767l.113.47.823.038v-6.015l-.823.038-.113.47c-.225.921-.599 1.485-1.161 1.749-.225.112-.393.131-.917.169-.356.019-.861.037-1.104.037h-.468v-1.485c0-1.485.075-4.662.131-5.15V8.37zM69.152 18.97c-.412-.845-1.198-1.409-2.808-2.086-1.309-.545-1.983-.94-2.377-1.372-.336-.357-.43-.658-.393-1.184.037-.489.15-.79.467-1.128.393-.432.955-.583 1.61-.432 1.068.225 1.76.977 2.359 2.556.206.564.243.584.617.432l.244-.094v-.658c0-.357-.019-1.109-.037-1.673l-.038-1.015-.188-.074c-.992-.414-2.863-.677-4.08-.565-1.386.132-2.414.564-3.201 1.392-.786.808-1.141 1.767-1.066 2.895.056.939.319 1.597.899 2.198.524.545.973.808 2.265 1.316 2.058.809 2.62 1.297 2.601 2.294 0 .846-.449 1.466-1.254 1.748-.3.094-1.029.094-1.423 0-1.029-.264-1.816-1.165-2.489-2.82l-.168-.432-.206.018a.876.876 0 0 0-.336.076l-.131.074.019.734c0 .394.019 1.241.037 1.86l.038 1.146.225.095c.468.207 1.89.508 2.77.601.113.019.711.019 1.348 0 1.085-.019 1.179-.019 1.722-.169 1.628-.432 2.676-1.334 3.144-2.707.15-.432.168-.545.187-1.184-.019-.865-.093-1.297-.355-1.843zm-12.561-6.84c-1.366-.695-3.481-.639-5.017.113-1.46.714-2.47 1.917-3.031 3.609-.3.883-.394 1.578-.356 2.725.019.714.056 1.09.13 1.429.58 2.593 2.339 4.342 4.81 4.793.543.094 1.779.094 2.321 0 .786-.131 1.684-.488 2.265-.883.693-.47 1.404-1.184 1.404-1.409 0-.132-.244-.451-.337-.451-.037 0-.243.094-.43.226-.674.451-1.329.62-2.247.62-1.254 0-2.04-.32-2.845-1.128-.356-.357-.505-.545-.674-.902-.393-.771-.617-1.673-.654-2.688l-.019-.432 7.374-.038.019-.244c0-.132 0-.489-.037-.808-.224-2.2-1.141-3.741-2.677-4.53v-.001zm-3.706 4.568-.936.019v-.207c0-.113.037-.414.075-.658.319-2.012 1.067-3.215 2.003-3.215.86 0 1.385 1.185 1.497 3.365l.037.62-.86.037c-.487 0-1.31.019-1.816.038zm-9.64-4.794c-.299-.056-.562-.074-1.123-.056-.861.037-1.441.15-2.097.451-.205.094-.393.188-.411.188s-.019-1.296 0-2.895c.019-2.255.019-2.894-.037-2.894-.169 0-5.241.977-5.297 1.015-.037.037-.056.15-.056.301.019.282-.019.264.599.394.187.038.412.132.487.188.206.15.374.47.505.921.093.357.112.62.15 3.064.037 2.5.037 5.075-.037 9.774l-.038 1.955.356.074c.524.113 2.04.377 2.527.433.73.074 2.414.056 2.957-.019 2.34-.357 4.099-1.71 4.923-3.797.224-.545.431-1.409.505-2.03.093-.733.037-2.218-.093-2.819-.487-2.274-1.91-3.853-3.819-4.249zM39.689 23.69c-.056-.169-.131-6.034-.112-8.365l.019-1.823.337-.094a3.25 3.25 0 0 1 .786-.094c.431 0 .468.019.824.188.861.432 1.441 1.485 1.721 3.083.094.601.113 2.218.019 2.932-.225 1.748-.786 3.158-1.554 3.834-.299.263-.58.414-.936.489-.262.057-.336.057-.823.019-.187-.037-.224-.056-.281-.169z"/>
    </symbol>
    <symbol id="instagram" viewBox="0 0 32 32">
      <path d="M16 3.499c4.076 0 4.561.015 6.171.09 4.137.187 6.069 2.152 6.258 6.258.075 1.609.088 2.094.088 6.171 0 4.076-.015 4.559-.088 6.168-.189 4.104-2.118 6.071-6.258 6.258-1.611.075-2.092.09-6.171.09-4.076 0-4.561-.015-6.17-.09-4.148-.189-6.071-2.161-6.258-6.26-.075-1.609-.09-2.092-.09-6.17 0-4.076.017-4.559.09-6.17.189-4.105 2.118-6.069 6.258-6.258 1.611-.073 2.094-.088 6.17-.088zm0-2.752c-4.146 0-4.666.018-6.293.091C4.16 1.092 1.078 4.169.823 9.722c-.072 1.629-.091 2.147-.091 6.293 0 4.148.018 4.667.091 6.296.254 5.545 3.331 8.626 8.881 8.881 1.63.075 2.149.091 6.296.091 4.146 0 4.667-.018 6.296-.091 5.539-.254 8.628-3.331 8.879-8.881.076-1.629.093-2.149.093-6.296 0-4.146-.018-4.666-.091-6.293-.25-5.542-3.33-8.629-8.881-8.884C20.665.762 20.147.747 16 .747zm0 7.429a7.836 7.836 0 0 0-7.84 7.84 7.836 7.836 0 0 0 7.84 7.84 7.842 7.842 0 0 0 5.544-13.384A7.842 7.842 0 0 0 16 8.176zm0 12.929a5.077 5.077 0 0 1-3.656-1.459A5.09 5.09 0 0 1 16 10.927a5.089 5.089 0 1 1 0 10.178zm8.151-15.07a1.837 1.837 0 0 0-1.887 1.833 1.826 1.826 0 0 0 .556 1.315 1.831 1.831 0 0 0 2.593-.037 1.833 1.833 0 0 0-1.262-3.109z"/>
    </symbol>
    <symbol id="linkedin" viewBox="0 0 32 32">
      <path d="M6.673 5.702a3.173 3.173 0 0 1-.919 2.243 3.175 3.175 0 0 1-2.236.937 3.165 3.165 0 0 1-3.155-3.18A3.17 3.17 0 0 1 3.518 2.52 3.173 3.173 0 0 1 6.44 4.487c.158.385.237.798.235 1.214zm.024 5.725H.335v20.358h6.362V11.427zm10.156 0h-6.321v20.358h6.322V21.099c0-5.943 7.671-6.427 7.671 0v10.686h6.347v-12.89c0-10.025-11.352-9.661-14.019-4.724v-2.744z"/>
    </symbol>
    <symbol id="logo" viewBox="0 0 125 32">
      <path d="M83.7 6.613c-2.158 0-3.822.769-5.366 2.374v-2h-4.238v19.68h4.56V15.253c0-2.613 1.556-4.266 3.917-4.266.429 0 .805.053 1.073.106l3.165-4.16c-1.234-.213-2.306-.32-3.111-.32zm39.325.374h-5.258l-4.855 6.419-4.855-6.42h-5.258l7.418 9.917-7.418 9.764h5.365l4.721-6.226 4.721 6.226h5.419l-7.468-9.748 7.468-9.932zM27.26 2.56c-1.556 2.08-1.932 2.773-3.434 2.773H1.4V32h8.799c1.985 0 3.916-.96 5.15-2.56 1.61-2.133 1.824-2.773 3.38-2.773h22.48V0h-8.853c-1.985 0-3.915.96-5.096 2.56zm6.974 17.227h-9.389c-2.039 0-3.916.853-5.15 2.506-1.61 2.134-1.932 2.774-3.434 2.774h-7.94v-12.8h9.389c2.038 0 3.916-.96 5.15-2.56 1.61-2.08 2.039-2.72 3.487-2.72h7.887v12.8zm33.692-6.56c1.986-1.12 3.38-3.094 3.38-5.707 0-3.84-2.95-7.52-7.242-7.52H51.188v26.667h12.876c4.667 0 7.886-3.307 7.886-7.467 0-2.453-1.126-4.587-4.024-5.973zM55.748 4.16h7.94c1.985 0 3.165 1.867 3.165 3.52 0 2.027-1.77 3.413-3.433 3.413h-7.672V4.16zm7.672 18.347h-7.672v-7.254h7.94c2.039 0 3.702 1.76 3.702 3.574 0 2.026-2.092 3.68-3.97 3.68z"/>
      <path d="M98.239 21.013c-.751 1.174-2.2 1.867-3.81 1.867-2.52 0-4.613-1.707-4.613-4.32h13.627c.215-.8.268-1.173.268-1.867 0-5.973-3.702-10.08-9.281-10.08-5.473 0-9.335 3.894-9.335 10.24 0 6.187 3.701 10.187 9.442 10.187 4.024 0 7.565-1.973 8.584-6.027h-4.882zm-3.81-10.24c2.522 0 4.454 1.6 4.4 4h-8.96c0-2.346 2.04-4 4.56-4z"/>
    </symbol>
    <symbol id="new-york-times" viewBox="0 0 139 32">
      <path d="M4.223 16.788v-5.231l-1.585.747s-.373.934-.373 2.242c.094 1.027.653 2.242 1.025 2.709l.933-.467zM8.79 6.046c.373 0 1.025.187 1.491.654s.559 1.215.466 1.868c-.186.56-.279.841-.932 1.308-.559.374-1.305.374-1.305.374v2.522l1.212 1.027-1.212 1.028v3.269s1.212-.747 1.958-2.241c0 0 0-.094.093-.281.094.467 0 1.308-.466 2.335a4.415 4.415 0 0 1-1.864 2.054c-1.492.841-2.518.841-3.728.655-1.398-.281-2.611-1.028-3.449-2.429-.559-.934-.839-1.961-.839-3.175.094-2.335 1.771-4.296 3.728-5.043.28-.094.373-.187.653-.187-.186.093-.373.28-.559.374-.653.374-1.212 1.214-1.398 1.868l3.822-1.682v5.418L3.385 17.35c.373.467 1.398 1.214 2.331 1.308 1.585.186 2.517-.467 2.517-.467v-3.549l-1.212-1.027 1.212-1.028v-2.522c-.653-.093-1.492-.28-1.958-.374-.653-.186-2.983-.841-3.355-.841-.373-.093-.839 0-1.118.188-.28.28-.466.653-.28 1.027.094.187.186.374.373.467 0 0-.093 0-.373-.187-.373-.187-.746-.654-.746-1.308-.093-.841.28-1.588.932-2.056.559-.374 1.305-.653 2.051-.56 1.118.187 2.703.841 4.008 1.121.559.094.932.188 1.305 0 .186-.093.466-.467.186-.84-.279-.467-.839-.467-1.305-.56.466-.187.559-.187.839-.094zm15.007 9.341-1.77 1.308v-4.297l1.77 2.989zm0-4.11s-1.211.747-1.957 1.215a322.03 322.03 0 0 1-1.864 1.027v4.95l-.746.56.093.094.653-.56 2.143 1.961 3.822-2.989-.094-.093-2.05 1.681-1.678-1.588v-.56l3.449-2.521-1.771-3.176zm-9.974 11.115a3.542 3.542 0 0 0 2.423-.373c1.212-.56 1.771-1.868 1.771-3.082l.093-1.774v-3.924l.746-.56-.093-.093-.746.56-1.678-1.868-2.143 1.868V6.701L11.4 8.849c.093.094.466.188.559.654v8.967l-1.118.841.093.093.466-.374 1.584 1.401 2.424-1.961-.094-.094-.559.467-.653-.56v-4.95l.746-.56 1.026 1.308v4.296c0 1.121 0 2.522-.652 3.269-.56.56-.746.653-1.398.746zm16.965-.37c-.932-.094-1.398-.747-1.398-1.215 0-.28.28-.841.839-.934s1.211.187 1.678.841l2.237-2.522v-.093l-.559.653c-.653-.747-1.491-1.121-2.331-1.308V9.879l5.872 10.648s.094.093.28.093.186-.186.186-.186V9.692c.466 0 1.212-.281 1.585-.654 1.118-1.121.653-2.428.559-2.521-.093.56-.466 1.121-1.211 1.121-.932 0-1.491-.654-1.491-.654l-2.238 2.617-.093.094.653-.747c.746.747 1.398.841 1.957.841v6.257l-4.381-7.845c-.373-.654-1.025-1.215-1.957-1.215-1.118 0-1.864.934-1.958 1.775-.094.934 0 1.121 0 1.121s.186-1.027.839-1.027c.559 0 .839.56 1.118.933v2.242c-.559 0-2.144.093-2.238 1.681 0 .56.374 1.214.654 1.401.215.166.474.263.745.281 0 0-.466-.281-.373-.747s1.118-.56 1.118-.374v3.268c-.466 0-1.958 0-2.61 1.308-.373.747-.373 1.681.093 2.241.466.467 1.119 1.121 2.424.934l.001-.001zm12.398-6.635-1.771 1.308v-4.297l1.771 2.989zm-.094-4.11s-1.211.747-1.957 1.215a322.03 322.03 0 0 1-1.864 1.027v4.95l-.653.56.093.094.654-.56 2.143 1.961 3.821-2.989-.093-.093-2.05 1.681-1.678-1.588v-.56l3.449-2.521-1.864-3.176zm5.311 9.338-1.864-1.587-.839.56-.093-.094.839-.56v-4.296c0-1.775-1.585-1.308-1.491-3.175 0-.841.839-1.494 1.211-1.682.466-.186.932-.186.932-.186s-.746.467-.559 1.121c.28 1.027 2.051 1.121 2.144 2.521v4.857l1.305 1.027.373-.28v-5.324l-.746-.654 1.864-1.681 1.678 1.494-.654.747v4.671l1.585 1.308.28-.187v-5.697l-.746-.654 1.864-1.681 1.771 1.401.652-.654.094.094-1.585 1.401v4.577L52.41 20.43l-1.957-1.401-2.051 1.587zm81.28-5.228-1.771 1.308v-4.297l1.771 2.989zm0-4.11s-1.211.747-1.958 1.215c-.838.467-1.864 1.027-1.864 1.027v4.95l-.746.56.093.094.652-.56 2.144 1.961 3.821-2.989-.093-.093-2.051 1.681-1.677-1.588v-.56l3.449-2.521-1.772-3.176zm-17.804 2.148.093.094.746-.653 1.025 1.214v4.11l-.467.467 1.585 1.868 1.771-1.681-.746-.747v-4.95l.466-.28 1.118 1.308v4.109l-.465.467 1.584 1.774 1.678-1.681-.652-.653v-5.044l.465-.374 1.212 1.401v4.109l-.372.374 1.677 1.868 2.33-2.148-.093-.094-.559.56-.838-1.027v-4.671l.746-.56-.093-.186-.746.653-1.585-1.775-2.237 1.775-1.584-1.682-2.144 1.682-1.585-1.682-2.33 2.055z"/>
      <path d="m107.221 13.237.093.093.559-.467 1.026 1.121v4.67l-.746.56.093.093.746-.56 1.492 1.775 2.237-1.962-.093-.093-.652.56-.932-1.027v-4.671l.746-.654-.093-.093-.652.654-1.679-1.868-2.143 1.868zm.65-3.921 1.677-1.494 1.306 1.494-1.678 1.494-1.305-1.494z"/>
      <path d="M101.064 16.788v-5.231l-1.585.747s-.373.935-.373 2.242c.094 1.027.653 2.241 1.026 2.709l.932-.467zm4.568-10.741c.372 0 1.025.186 1.491.653s.559 1.215.466 1.868c-.187.56-.28.841-.932 1.308-.559.374-1.305.374-1.305.374v2.522l1.212 1.027-1.212 1.028v3.269s1.212-.747 1.958-2.241c0 0 0-.094.093-.281.094.467 0 1.308-.465 2.335a4.42 4.42 0 0 1-1.864 2.054c-1.492.841-2.517.841-3.729.655-1.398-.28-2.61-1.028-3.448-2.429-.559-.934-.839-2.054-.839-3.268.093-2.335 1.771-4.297 3.728-5.044.28-.093.372-.186.653-.186-.186.093-.373.28-.559.373-.653.374-1.212 1.214-1.398 1.868l3.822-1.681v5.418l-3.076 1.587c.373.467 1.398 1.215 2.33 1.308 1.585.187 2.517-.467 2.517-.467v-3.55l-1.212-1.027 1.212-1.027V9.97c-.653-.093-1.492-.28-1.958-.373-.653-.187-2.982-.841-3.356-.841-.372-.093-.839 0-1.118.187-.28.281-.467.654-.28 1.027.094.188.187.374.373.467 0 0-.093 0-.373-.186-.465-.281-.746-.748-.838-1.401-.093-.841.28-1.588.932-2.055.559-.374 1.304-.654 2.051-.56 1.118.186 2.702.841 4.008 1.121.559.093.932.186 1.305 0 .187-.094.466-.467.186-.841-.28-.467-.839-.467-1.304-.56.559 0 .652 0 .932.094zm28.9 6.258v2.43l.838.747s1.772-1.401 2.423-2.802c0 0-.838 1.121-1.864.746-.838-.28-1.398-1.121-1.398-1.121zm-1.957 6.538s.746-1.308 2.144-1.027c1.305.28 1.771 1.587 1.771 1.587v-3.175l-.932-.747c-1.025 1.027-2.796 2.428-2.982 3.362zm1.305 2.335c-.279.094-1.305-.186-1.585-1.308-.279-1.121.467-1.868 1.679-2.989l-1.398-1.214v-2.335s1.026-.467 1.772-1.027c.746-.467 1.584-1.028 1.584-1.028s.559.747 1.212.653c1.025-.093 1.025-.934.932-1.121.186.281.652 1.215-1.212 3.363l1.491 1.214v3.082s-1.677.934-3.356 2.055c0 0-.932-1.121-1.677-.56-.466.374-.186.934.559 1.214zm-59.564-3.454 1.958 1.775v-5.324L74.316 12.4v5.324zm3.915-4.39.653-.653.093.093-.559.654v4.95s-1.211.653-2.051 1.121c-.838.467-1.771 1.027-1.771 1.027l-2.237-1.868-.559.56-.28-.186.652-.561v-5.324s1.025-.467 1.958-1.027a27.667 27.667 0 0 0 1.678-1.027l2.423 2.241zm4.473-.471 1.398-1.494s.186.187.373.28c.093.093.559.28.932.093.187-.093.28-.186.467-.374.093 1.121-.467 1.962-1.212 2.242-.279.093-1.119.374-1.957-.655v5.325l.932.841.746-.655.093.094-2.237 1.962-1.864-1.682-.652.655-.093-.094 1.025-.934V13.89l-.746-1.027-.653.56h-.093l2.33-2.054 1.212 1.494zm6.06 2.244 2.703-3.83s.373.374.932.56c.84.187 1.585-.56 1.585-.56-.093 1.027-.653 2.241-1.772 2.429-.932.186-1.864-.561-1.864-.561l-.187.28 3.729 5.604.746-.653.093.093-2.517 2.241-3.448-5.604z"/>
      <path d="M86.621 9.88c0-.841-.372-1.308-.746-1.308l2.89-2.055v11.581l.746.841.559-.467.093.093-2.33 2.055-1.585-1.587-.652.56-.093-.094 1.118-.934V9.88zm-18.642 3.266s-.28.374-.839.374c-.465 0-.839-.374-.839-.374v1.589s.374-.374.839-.374c.467 0 .839.374.839.374v-1.589zm0-3.362-1.118-1.027-.559.467v3.736s.373.467.839.467.838-.374.838-.374V9.784zm-1.678 10.461s.653.186 1.212-.187c.559-.467.466-1.121.466-1.121v-4.016s-.28-.374-.839-.374c-.465 0-.839.467-.839.467v5.231zM62.294 9.689c0-.747-.28-1.214-.839-1.214-.746 0-.932 1.027-.932 1.027s-.093-.841.559-1.494c.373-.374 1.118-.934 2.144-.747 1.118.281 1.491 1.121 1.491 1.962v10.741s.465.094.746.094c.372.093.652.186.652.186V7.263h.187v1.775l2.33-1.868 1.679 1.494.838-.654.093.094-.839.653v9.994c0 .653-.186 1.308-.745 1.681-1.398.841-2.982-.094-4.475-.374-1.118-.187-2.796-.374-3.262.653-.186.374-.094.841.373 1.214 1.025.653 5.406-1.121 6.99-.374 1.398.653 1.398 1.681 1.212 2.335-.372 1.308-2.05 1.588-2.05 1.588s.838-.467.559-1.215c-.093-.374-.373-.467-1.212-.374-1.864.187-4.194 1.121-5.686.467-.746-.374-1.305-1.308-1.305-2.241 0-1.401 1.678-1.962 1.678-1.962v-5.137c0-.186-.932-.186-1.118.187-.28.56.373.841.373.841s-.559.093-.932-.467c-.186-.28-.653-1.121-.094-1.961.466-.654 1.025-.747 1.771-.841V9.689h-.186v-.001z"/>
    </symbol>
    <symbol id="techcrunch" viewBox="0 0 139 32">
      <path d="M52.139 13.865v8.639h-3.15v-8.64h-3.186v-2.751h9.512v2.751l-3.176.001zm10.537 5.206h-5.003c.099.947.648 1.362 1.448 1.362.748 0 1.369-.163 2.206-.605l1.116 1.875c-1.053.623-2.142.975-3.474.975-2.565 0-3.978-1.822-3.978-4.446 0-2.949 1.656-4.455 3.897-4.455 2.339 0 3.797 1.542 3.797 4.716 0 .253 0 .433-.009.577zm-3.869-3.12c-.666 0-1.035.46-1.134 1.299h2.439c-.153-.857-.441-1.299-1.305-1.299zm9.304 6.735c-2.501 0-3.996-1.596-3.996-4.473 0-2.624 1.332-4.428 4.059-4.428 1.611 0 2.529.749 3.275 1.948l-2.015 1.533c-.405-.749-.684-1.109-1.314-1.109-.746 0-1.124.748-1.124 2.1s.404 2.047 1.205 2.047c.55 0 .946-.307 1.476-1.109l1.854 1.451c-.99 1.47-1.909 2.038-3.42 2.038zm9.964-.182v-4.851c0-1.109-.369-1.398-.972-1.398-.621 0-.99.288-.99 1.37v4.879h-2.924V11.817l2.924-1.171v3.886c.54-.406 1.134-.749 2.142-.749 1.871 0 2.763 1.254 2.763 3.499v5.221h-2.943zM88.01 22.689c-3.374 0-5.183-2.507-5.183-5.871 0-3.661 2.141-5.87 5.192-5.87 2.79 0 3.897 1.209 4.68 3.354l-2.852 1.11c-.406-1.055-.792-1.722-1.836-1.722-1.313 0-1.881 1.316-1.881 3.12 0 1.741.549 3.12 1.917 3.12.99 0 1.413-.541 2.026-1.615l2.663 1.416c-.756 1.506-2.024 2.958-4.724 2.958zm11.913-5.504c-.369-.406-.793-.712-1.359-.712-.711 0-1.152.342-1.152 1.38v4.653h-2.925v-8.54h2.925v.622c.504-.487 1.071-.793 1.818-.793.621 0 1.034.144 1.377.361l-.684 3.03zm6.949 5.322v-.568c-.522.406-1.133.749-2.124.749-1.872 0-2.763-1.253-2.763-3.499v-5.22h2.943v4.851c0 1.109.369 1.398.972 1.398s.972-.289.972-1.371v-4.878h2.943v8.539h-2.943zm9.936-.001v-4.852c0-1.109-.369-1.397-.972-1.397-.621 0-.989.288-.989 1.37v4.879h-2.925v-8.54h2.925v.568c.54-.406 1.133-.749 2.141-.749 1.872 0 2.763 1.254 2.763 3.499v5.221h-2.943zm8.638.18c-2.502 0-3.996-1.596-3.996-4.473 0-2.624 1.332-4.428 4.059-4.428 1.611 0 2.529.749 3.275 1.948l-2.015 1.533c-.405-.749-.684-1.109-1.314-1.109-.747 0-1.125.748-1.125 2.1s.405 2.047 1.206 2.047c.549 0 .945-.307 1.476-1.109l1.854 1.451c-.99 1.47-1.907 2.038-3.42 2.038zm9.963-.182v-4.851c0-1.109-.368-1.398-.972-1.398-.621 0-.99.288-.99 1.37v4.879h-2.924V11.817l2.924-1.171v3.886c.54-.406 1.134-.749 2.142-.749 1.871 0 2.763 1.254 2.763 3.499v5.221h-2.943zM.215 6.24v6.51h6.497v13.014H13.2V12.75h6.498V6.24H.215z"/>
      <path d="M26.185 19.252V12.75h-6.49v13.012h19.474v-6.511l-12.985.001zM39.174 6.24H26.187v6.51h12.986V6.24h.001z"/>
    </symbol>
    <symbol id="twitter" viewBox="0 0 32 32">
      <path d="M32 9.277a12.496 12.496 0 0 1-3.598.986 6.278 6.278 0 0 0 2.754-3.465 12.545 12.545 0 0 1-3.977 1.521 6.252 6.252 0 0 0-4.574-1.979c-4.044 0-7.017 3.774-6.103 7.692A17.79 17.79 0 0 1 3.589 7.486a6.274 6.274 0 0 0 1.938 8.365 6.243 6.243 0 0 1-2.836-.785c-.069 2.903 2.011 5.618 5.024 6.223a6.28 6.28 0 0 1-2.83.107 6.267 6.267 0 0 0 5.853 4.351 12.598 12.598 0 0 1-9.275 2.595 17.728 17.728 0 0 0 9.605 2.814c11.631 0 18.203-9.824 17.806-18.636a12.762 12.762 0 0 0 3.127-3.241v-.002z"/>
    </symbol>
    <symbol id="youtube" viewBox="0 0 32 32">
      <path d="M7.046.996h1.832l1.257 4.71L11.301.997h1.85l-2.118 7.002v4.78H9.212V8L7.047.995zm8.39 3.02c-1.423 0-2.368.942-2.368 2.334v4.261c0 1.533.8 2.331 2.368 2.331 1.3 0 2.324-.87 2.324-2.331V6.35c0-1.361-1.015-2.334-2.324-2.334zm.675 6.522c0 .474-.241.823-.677.823-.446 0-.704-.366-.704-.823V6.495c0-.475.218-.827.672-.827.497 0 .709.341.709.827v4.043zm6.019-6.45v6.598c-.198.248-.637.652-.952.652-.344 0-.43-.236-.43-.585V4.088h-1.615v7.266c0 .859.262 1.553 1.128 1.553.489 0 1.169-.254 1.868-1.085v.96h1.615V4.087l-1.614.002zm2.803 17.633c-.57 0-.689.401-.689.971v.838h1.361v-.84c0-.559-.117-.969-.672-.969zm-5.984.051c-.12.065-.229.15-.32.251v5.16c.104.118.228.217.366.293.251.126.617.136.788-.085.09-.117.134-.308.134-.571v-4.274c0-.28-.055-.491-.165-.637-.186-.244-.533-.271-.803-.136zm6.141-6.611c-3.313-.224-14.08-.224-17.387 0-3.581.244-4.005 2.408-4.03 8.102.026 5.684.445 7.857 4.029 8.1 3.308.226 14.075.226 17.388 0 3.581-.244 4.003-2.408 4.03-8.1-.027-5.684-.446-7.857-4.03-8.102zM9.41 28.758H7.676v-9.594H5.881v-1.629h5.321v1.63H9.408v9.592h.002zm6.165 0h-1.539v-.914a3.38 3.38 0 0 1-.885.771c-.83.475-1.969.465-1.969-1.216v-6.918h1.539v6.347c0 .332.079.556.408.556.3 0 .718-.386.905-.619v-6.286h1.539v8.277l.002.002zm5.926-1.714c0 1.024-.384 1.82-1.408 1.82-.564 0-1.033-.206-1.463-.741v.635h-1.553V17.535h1.554v3.614c.347-.424.818-.774 1.368-.774 1.128 0 1.502.954 1.502 2.075v4.593H21.5zm5.688-2.229h-2.944v1.562c0 .622.053 1.158.67 1.158.651 0 .689-.437.689-1.158v-.574h1.585v.622c0 1.594-.686 2.56-2.307 2.56-1.469 0-2.222-1.07-2.222-2.56v-3.72c0-1.435.949-2.433 2.337-2.433 1.478 0 2.19.939 2.19 2.435v2.107l.002.002z"/>
    </symbol>
    <symbol id="zdnet" viewBox="0 0 48 32">
      <path d="M10.347 31.662 0 10.396 21.167 0l6.388 13.13V7.656h1.869l3.894 6.835V7.656h1.785v10.235h-1.929l-3.834-6.675v5.582l2.174 4.467L10.347 31.66zm8.389-16.645v-4.88h1.295c2.836 0 2.865 2.1 2.865 2.674 0 .529-.03 2.673-2.865 2.673h-.912v2.468h1.467c3.669 0 5.263-2.38 5.263-5.141 0-2.306-1.053-5.141-5.263-5.141h-4.715v7.814h-5.834l4.852-7.814h-8.05l-1.633 2.468h5.035l-5.197 7.814h11.454l2.238-2.934zm24.192.842-1.818-.327c-.098.372-.246.641-.441.81a1.067 1.067 0 0 1-.72.251c-.419 0-.771-.162-1.052-.486-.281-.322-.428-.774-.441-1.356h4.569c.024-1.504-.259-2.619-.85-3.348-.594-.729-1.402-1.094-2.427-1.094-.913 0-1.668.348-2.264 1.044-.598.696-.897 1.659-.897 2.889 0 1.027.228 1.88.682 2.555.576.843 1.462 1.263 2.66 1.263.757 0 1.389-.186 1.891-.563.505-.374.873-.919 1.108-1.637zm-2.122-3.606c.259.295.394.727.408 1.296H38.49c-.004-.536.124-.96.383-1.27.259-.312.587-.47.986-.47.372 0 .689.148.948.444zm6.863-1.776v1.564h-1.244v2.988c0 .605.011.958.035 1.058a.443.443 0 0 0 .161.248.497.497 0 0 0 .308.098c.17 0 .414-.064.735-.188l.155 1.521a3.415 3.415 0 0 1-1.442.293 2.17 2.17 0 0 1-.888-.177c-.263-.119-.456-.274-.58-.462s-.208-.443-.257-.765c-.038-.227-.057-.689-.057-1.382v-3.232h-.837v-1.563h.837V9.003l1.829-1.144v2.619h1.244z"/>
    </symbol>
    <symbol id="chevron" viewBox="0 0 46 32">
    <path d="M42.667 28.444l-19.556-24.889-19.556 24.889z"></path>
    <path fill="none" stroke="#000" style="stroke: var(--color1, #000)" stroke-linejoin="round" stroke-linecap="round" stroke-miterlimit="4" stroke-width="6.8409" d="M42.667 28.444l-19.556-24.889-19.556 24.889"></path>
    </symbol>
  </defs>
</svg>
